<mxfile host="Electron" modified="2024-03-20T22:27:43.896Z" agent="Mozilla/5.0 (Macintosh; Intel Mac OS X 10_15_7) AppleWebKit/537.36 (KHTML, like Gecko) draw.io/24.0.4 Chrome/120.0.6099.109 Electron/28.1.0 Safari/537.36" etag="cZQQMJbdklIcfd_uFgnW" version="24.0.4" type="device">
  <diagram name="Page-1" id="BDGYTm-l68rQ-RbOuSO3">
    <mxGraphModel dx="989" dy="812" grid="1" gridSize="10" guides="1" tooltips="1" connect="1" arrows="1" fold="1" page="1" pageScale="1" pageWidth="1100" pageHeight="850" math="0" shadow="0">
      <root>
        <mxCell id="0" />
        <mxCell id="1" parent="0" />
        <mxCell id="x7qIcmFWHujgIMoPJBz2-2" value="&lt;b&gt;&lt;font style=&quot;font-size: 16px;&quot;&gt;Human&lt;/font&gt;&lt;/b&gt;" style="rounded=0;whiteSpace=wrap;html=1;fillColor=#dae8fc;strokeColor=#6c8ebf;" parent="1" vertex="1">
          <mxGeometry x="245" y="240" width="80" height="71.75" as="geometry" />
        </mxCell>
        <mxCell id="x7qIcmFWHujgIMoPJBz2-4" value="&lt;font style=&quot;font-size: 18px;&quot;&gt;Cancer type &lt;b&gt;1&lt;/b&gt;&lt;/font&gt;" style="rounded=0;whiteSpace=wrap;html=1;fillColor=#f8cecc;strokeColor=#b85450;" parent="1" vertex="1">
          <mxGeometry x="325" y="68.25" width="80" height="121.75" as="geometry" />
        </mxCell>
        <mxCell id="x7qIcmFWHujgIMoPJBz2-12" value="&lt;span style=&quot;font-size: 18px;&quot;&gt;Cancer type &lt;b&gt;2&lt;/b&gt;&lt;/span&gt;" style="rounded=0;whiteSpace=wrap;html=1;fillColor=#fff2cc;strokeColor=#d6b656;" parent="1" vertex="1">
          <mxGeometry x="325" y="190" width="80" height="120" as="geometry" />
        </mxCell>
        <mxCell id="x7qIcmFWHujgIMoPJBz2-13" value="&lt;font style=&quot;font-size: 18px;&quot;&gt;Biological component &lt;b&gt;1&lt;/b&gt; of signal in distribution&lt;/font&gt;" style="rounded=0;whiteSpace=wrap;html=1;fillColor=#f8cecc;strokeColor=#b85450;" parent="1" vertex="1">
          <mxGeometry x="405" y="68.25" width="385" height="121.75" as="geometry" />
        </mxCell>
        <mxCell id="x7qIcmFWHujgIMoPJBz2-14" value="" style="shape=curlyBracket;whiteSpace=wrap;html=1;rounded=1;labelPosition=left;verticalLabelPosition=middle;align=right;verticalAlign=middle;rotation=0;strokeWidth=2;" parent="1" vertex="1">
          <mxGeometry x="216" y="68.25" width="20" height="241.75" as="geometry" />
        </mxCell>
        <mxCell id="x7qIcmFWHujgIMoPJBz2-15" value="&lt;b&gt;&lt;font style=&quot;font-size: 20px;&quot;&gt;Gene features&lt;/font&gt;&lt;/b&gt;" style="text;html=1;strokeColor=none;fillColor=none;align=center;verticalAlign=middle;whiteSpace=wrap;rounded=0;" parent="1" vertex="1">
          <mxGeometry x="515" y="15" width="162.5" height="30" as="geometry" />
        </mxCell>
        <mxCell id="x7qIcmFWHujgIMoPJBz2-16" value="" style="shape=curlyBracket;whiteSpace=wrap;html=1;rounded=1;labelPosition=left;verticalLabelPosition=middle;align=right;verticalAlign=middle;rotation=90;strokeWidth=2;" parent="1" vertex="1">
          <mxGeometry x="587.25" y="-140" width="20" height="382.5" as="geometry" />
        </mxCell>
        <mxCell id="x7qIcmFWHujgIMoPJBz2-17" value="&lt;span style=&quot;font-size: 20px;&quot;&gt;&lt;b&gt;Samples&lt;/b&gt;&lt;/span&gt;" style="text;html=1;strokeColor=none;fillColor=none;align=center;verticalAlign=middle;whiteSpace=wrap;rounded=0;rotation=-90;" parent="1" vertex="1">
          <mxGeometry x="172" y="171.12" width="60" height="30" as="geometry" />
        </mxCell>
        <mxCell id="x7qIcmFWHujgIMoPJBz2-18" style="edgeStyle=orthogonalEdgeStyle;rounded=0;orthogonalLoop=1;jettySize=auto;html=1;exitX=0.5;exitY=1;exitDx=0;exitDy=0;" parent="1" source="x7qIcmFWHujgIMoPJBz2-13" target="x7qIcmFWHujgIMoPJBz2-13" edge="1">
          <mxGeometry relative="1" as="geometry" />
        </mxCell>
        <mxCell id="x7qIcmFWHujgIMoPJBz2-26" value="&lt;font style=&quot;font-size: 18px;&quot;&gt;Biological component &lt;b&gt;2&lt;/b&gt;&amp;nbsp;of signal in distribution&lt;/font&gt;" style="rounded=0;whiteSpace=wrap;html=1;fillColor=#fff2cc;strokeColor=#d6b656;" parent="1" vertex="1">
          <mxGeometry x="405" y="190" width="385" height="120" as="geometry" />
        </mxCell>
        <mxCell id="x7qIcmFWHujgIMoPJBz2-34" value="&lt;span style=&quot;border-color: var(--border-color);&quot;&gt;&lt;font style=&quot;font-size: 16px;&quot;&gt;Label&lt;b&gt; 1&lt;/b&gt;&lt;/font&gt;&lt;/span&gt;" style="text;html=1;strokeColor=none;fillColor=none;align=center;verticalAlign=middle;whiteSpace=wrap;rounded=0;" parent="1" vertex="1">
          <mxGeometry x="255" y="36.25" width="60" height="30" as="geometry" />
        </mxCell>
        <mxCell id="x7qIcmFWHujgIMoPJBz2-36" value="&lt;span style=&quot;border-color: var(--border-color);&quot;&gt;&lt;font style=&quot;font-size: 16px;&quot;&gt;Label&lt;b&gt; 2&lt;/b&gt;&lt;/font&gt;&lt;/span&gt;" style="text;html=1;strokeColor=none;fillColor=none;align=center;verticalAlign=middle;whiteSpace=wrap;rounded=0;" parent="1" vertex="1">
          <mxGeometry x="335" y="36.25" width="60" height="30" as="geometry" />
        </mxCell>
        <mxCell id="bB90ixjiuMkR5zOpNW2R-34" value="&lt;b&gt;&lt;font style=&quot;font-size: 16px;&quot;&gt;Model System&lt;/font&gt;&lt;/b&gt;" style="rounded=0;whiteSpace=wrap;html=1;fillColor=#d5e8d4;strokeColor=#82b366;" parent="1" vertex="1">
          <mxGeometry x="245" y="190" width="80" height="50" as="geometry" />
        </mxCell>
        <mxCell id="bB90ixjiuMkR5zOpNW2R-35" value="&lt;b&gt;&lt;font style=&quot;font-size: 16px;&quot;&gt;Human&lt;/font&gt;&lt;/b&gt;" style="rounded=0;whiteSpace=wrap;html=1;fillColor=#dae8fc;strokeColor=#6c8ebf;" parent="1" vertex="1">
          <mxGeometry x="245" y="120" width="80" height="70" as="geometry" />
        </mxCell>
        <mxCell id="x7qIcmFWHujgIMoPJBz2-1" value="&lt;b&gt;&lt;font style=&quot;font-size: 16px;&quot;&gt;Model System&lt;/font&gt;&lt;/b&gt;" style="rounded=0;whiteSpace=wrap;html=1;fillColor=#d5e8d4;strokeColor=#82b366;" parent="1" vertex="1">
          <mxGeometry x="245" y="68.25" width="80" height="51.75" as="geometry" />
        </mxCell>
      </root>
    </mxGraphModel>
  </diagram>
</mxfile>
